<svg version="1.1" id="Layer_1" xmlns="http://www.w3.org/2000/svg" xmlns:xlink="http://www.w3.org/1999/xlink" x="0px" y="0px"
	 width="80px" viewBox="0 0 739 638" enable-background="new 0 0 739 638" xml:space="preserve">
<path fill="none" opacity="1.000000" stroke="#000000" stroke-linecap="round" stroke-linejoin="round" stroke-width="8.000000"
	d="
M473.500000,464.500000 
	C473.500000,401.749542 473.500000,338.999115 473.500000,276.494720 
	C470.921875,275.232697 468.689880,275.506409 466.500000,275.506165 
	C393.500000,275.498749 320.500000,275.500000 247.500000,275.500000 
	C240.500000,275.500000 240.500000,275.500000 240.500000,282.500000 
	C240.500000,343.166656 240.500000,403.833344 240.500000,464.500000 
"/>
<path fill="none" opacity="1.000000" stroke="#000000" stroke-linecap="round" stroke-linejoin="round" stroke-width="7.000000"
	d="
M47.500000,248.500000 
	C50.642700,248.718521 53.423889,247.842911 56.010086,246.014267 
	C103.839943,212.194672 152.377441,179.394592 200.381638,145.830719 
	C212.239288,137.540024 224.842056,130.286011 235.990921,120.989120 
	C245.052032,113.433189 255.702728,108.242516 265.082520,101.108505 
	C274.710358,93.785858 285.020813,87.363556 294.994110,80.491455 
	C304.854401,73.697227 314.659973,66.823669 324.501953,60.002800 
	C333.659454,53.656277 342.893250,47.417320 351.961975,40.946686 
	C354.543854,39.104465 356.748810,39.462898 358.987885,41.017467 
	C403.800262,72.130280 449.691559,101.629425 495.017883,131.973267 
	C552.443848,170.417206 609.993042,208.677139 667.525146,246.962219 
	C669.853516,248.511612 672.488525,249.838913 675.500000,248.500000 
"/>
<path fill="none" opacity="1.000000" stroke="#000000" stroke-linecap="round" stroke-linejoin="round" stroke-width="8.000000"
	d="
M22.500000,608.500000 
	C254.500000,608.500000 486.500000,608.500000 718.500000,608.500000 
"/>
<path fill="none" opacity="1.000000" stroke="#000000" stroke-linecap="round" stroke-linejoin="round" stroke-width="8.000000"
	d="
M242.000000,115.000000 
	C240.243820,112.935844 240.499802,110.440742 240.499832,108.000000 
	C240.500107,85.166664 240.503632,62.333332 240.493942,39.500004 
	C240.493042,37.407040 240.730209,35.288250 239.600143,32.500000 
	C229.678757,32.500000 219.339355,32.511429 209.000031,32.486897 
	C207.554504,32.483467 207.072662,33.286152 206.429291,34.461292 
	C205.348679,36.435104 205.506516,38.452133 205.505951,40.500000 
	C205.497360,71.333336 205.504532,102.166664 205.490585,133.000000 
	C205.489578,135.229202 205.425385,137.447372 206.500000,139.500000 
"/>
<path fill="none" opacity="1.000000" stroke="#000000" stroke-linecap="round" stroke-linejoin="round" stroke-width="8.000000"
	d="
M657.500000,484.250000 
	C650.716614,471.656525 632.944946,469.390808 623.034912,480.032532 
	C616.939270,486.578278 616.430603,498.071564 627.988953,501.536804 
	C633.386780,503.155060 638.692261,505.095978 643.994568,507.014984 
	C654.403687,510.782196 655.426697,519.930176 648.510376,528.008911 
	C641.261292,536.476379 631.773071,536.740295 622.023682,534.876160 
	C617.009521,533.917297 613.442200,530.439636 612.000000,525.250000 
"/>
<path fill="none" opacity="1.000000" stroke="#000000" stroke-linecap="round" stroke-linejoin="round" stroke-width="8.000000"
	d="
M245.000000,508.000000 
	C252.333328,508.333313 259.722809,509.392792 266.986938,508.830963 
	C278.074890,507.973419 286.510132,494.404572 283.500000,483.500000 
	C282.132843,478.547333 276.989502,474.608612 271.499664,474.521606 
	C265.501160,474.426514 259.489410,474.714600 253.503967,474.419464 
	C249.918076,474.242645 248.268463,475.804993 248.035553,479.002594 
	C247.338959,488.565247 245.326492,497.991241 243.989670,507.427704 
	C242.743362,516.225525 240.968918,525.194824 239.000000,534.000000 
"/>
<path fill="none" opacity="1.000000" stroke="#000000" stroke-linecap="round" stroke-linejoin="round" stroke-width="8.000000"
	d="
M371.500000,507.500000 
	C376.896851,509.535553 382.581268,507.637177 387.978424,508.618591 
	C392.981964,509.528442 396.883545,507.807556 401.032288,505.559570 
	C408.539398,501.491852 412.181122,490.959412 410.489288,484.502808 
	C408.813080,478.105865 404.783112,474.770935 397.998535,474.543640 
	C391.838806,474.337280 385.666595,474.517853 379.500031,474.491852 
	C376.761383,474.480286 375.386078,475.427582 374.905365,478.485107 
	C373.491791,487.475647 371.793396,496.398834 370.853210,505.484802 
	C370.069427,513.058899 367.979034,520.495911 366.513245,528.002563 
	C366.093445,530.152405 365.833344,532.333313 365.500000,534.500000 
"/>
<path fill="none" opacity="1.000000" stroke="#000000" stroke-linecap="round" stroke-linejoin="round" stroke-width="8.000000"
	d="
M527.000000,504.000000 
	C528.590149,500.862701 532.003967,500.002716 534.520752,498.026428 
	C539.164612,494.379822 541.342957,487.640594 539.500061,482.000000 
	C537.906982,477.124329 533.547791,474.505768 527.000000,474.500885 
	C521.166687,474.496552 515.333130,474.528870 509.500092,474.486206 
	C507.057312,474.468353 505.644287,475.199890 505.452057,477.996704 
	C504.876282,486.374115 503.189819,494.681580 501.969269,502.921387 
	C500.791107,510.875580 499.125610,518.991577 497.444458,526.988342 
	C497.007690,529.065857 496.694366,531.000000 497.500000,533.000000 
"/>
<path fill="none" opacity="1.000000" stroke="#000000" stroke-linecap="round" stroke-linejoin="round" stroke-width="7.000000"
	d="
M176.500000,472.000000 
	C172.605896,472.772583 170.886734,475.852081 169.538940,479.016571 
	C162.952942,494.479950 156.426147,509.969788 150.060684,525.524841 
	C148.746277,528.736816 145.184204,529.847351 144.000000,533.000000 
"/>
<path fill="none" opacity="1.000000" stroke="#000000" stroke-linecap="round" stroke-linejoin="round" stroke-width="8.000000"
	d="
M503.000000,504.000000 
	C508.809479,505.001312 514.789246,505.104553 520.465332,504.265411 
	C525.951782,503.454285 529.721252,505.852509 533.442200,508.578888 
	C539.781433,513.223633 539.279236,521.328491 533.887878,528.414673 
	C530.743469,532.547546 525.817017,534.594238 520.501587,534.443237 
	C512.666687,534.220703 504.765289,535.513184 496.988464,533.545532 
	C496.577972,533.441772 496.000000,534.000000 495.500000,534.250000 
"/>
<path fill="none" opacity="1.000000" stroke="#000000" stroke-linecap="round" stroke-linejoin="round" stroke-width="8.000000"
	d="
M599.500000,474.500000 
	C590.333313,474.500000 581.166199,474.555420 572.000244,474.472076 
	C568.440613,474.439728 566.204346,474.970276 565.862549,479.489594 
	C565.242981,487.680145 563.590637,495.824982 562.429443,503.918121 
	C561.314941,511.686005 559.488464,519.629395 558.008179,527.501526 
	C556.755310,534.164856 557.018738,534.483459 563.500000,534.495728 
	C572.500000,534.512695 581.500000,534.500000 590.500000,534.500000 
"/>
<path fill="none" opacity="1.000000" stroke="#000000" stroke-linecap="round" stroke-linejoin="round" stroke-width="8.000000"
	d="
M97.999992,475.000000 
	C98.999992,486.500000 99.977211,498.002045 101.010811,509.499023 
	C101.445869,514.338196 102.467239,519.179077 102.339783,523.995789 
	C102.251167,527.344666 104.785423,529.056152 105.500000,531.750000 
"/>
<path fill="none" opacity="1.000000" stroke="#000000" stroke-linecap="round" stroke-linejoin="round" stroke-width="7.000000"
	d="
M134.000000,479.000000 
	C127.754379,482.049988 127.177444,488.783386 124.632576,494.063904 
	C119.839676,504.009064 115.744720,514.296936 111.549553,524.520325 
	C110.141396,527.951965 106.896393,529.845398 105.250000,533.000000 
"/>
<path fill="none" opacity="1.000000" stroke="#000000" stroke-linecap="round" stroke-linejoin="round" stroke-width="8.000000"
	d="
M473.500000,553.500000 
	C473.500000,571.333313 473.500000,589.166687 473.500000,607.000000 
"/>
<path fill="none" opacity="1.000000" stroke="#000000" stroke-linecap="round" stroke-linejoin="round" stroke-width="8.000000"
	d="
M240.500000,555.500000 
	C240.500000,572.666687 240.500000,589.833313 240.500000,607.000000 
"/>
<path fill="none" opacity="1.000000" stroke="#000000" stroke-linecap="round" stroke-linejoin="round" stroke-width="8.000000"
	d="
M134.750000,476.000000 
	C134.666672,476.833344 134.204010,477.907013 134.556885,478.463959 
	C139.856979,486.827942 137.902542,496.492798 139.403580,505.516052 
	C140.554672,512.435425 140.719528,519.514282 141.594894,526.488098 
	C141.772568,527.903687 143.166656,529.166687 143.999985,530.500000 
"/>
<path fill="none" opacity="1.000000" stroke="#000000" stroke-linecap="round" stroke-linejoin="round" stroke-width="8.000000"
	d="
M220.000000,535.000000 
	C217.627945,534.257935 218.431000,532.158936 217.926025,530.522827 
	C216.338120,525.377991 214.478378,519.834900 214.049881,514.951721 
	C213.379623,507.313232 211.541245,499.983337 210.355591,492.522949 
	C209.477402,486.997009 209.733856,480.836273 205.023651,476.489044 
	C202.856873,477.470612 201.123810,478.889282 199.997757,480.998810 
	C194.836166,490.668182 189.090027,500.079224 184.682556,510.080444 
	C181.161514,518.070251 175.835739,525.003845 172.595688,533.038574 
	C171.723999,535.200256 169.562607,535.023926 168.500000,536.500000 
"/>
<path fill="none" opacity="1.000000" stroke="#000000" stroke-linecap="round" stroke-linejoin="round" stroke-width="8.000000"
	d="
M563.500000,504.000000 
	C573.150452,505.105682 582.835449,504.210327 592.500000,504.500000 
"/>
<path fill="none" opacity="1.000000" stroke="#000000" stroke-linecap="round" stroke-linejoin="round" stroke-width="9.000000"
	d="
M267.500000,509.500000 
	C269.448639,517.813354 273.463409,525.391724 276.148132,533.450623 
	C276.597839,534.800537 279.000000,535.500000 280.500000,536.500000 
"/>
<path fill="none" opacity="1.000000" stroke="#000000" stroke-linecap="round" stroke-linejoin="round" stroke-width="8.000000"
	d="
M184.500000,514.500000 
	C188.045181,516.169617 191.825134,515.496582 195.499405,515.451538 
	C201.332504,515.380127 207.192352,516.065491 213.000000,515.000000 
"/>
<path fill="none" opacity="1.000000" stroke="#000000" stroke-linecap="round" stroke-linejoin="round" stroke-width="9.000000"
	d="
M394.000000,510.000000 
	C396.490387,517.067139 399.026245,524.110229 401.854279,531.059326 
	C402.796234,533.373840 403.971008,534.752502 406.000000,535.750000 
"/>
<path fill="none" opacity="1.000000" stroke="#000000" stroke-linecap="round" stroke-linejoin="round" stroke-width="8.000000"
	d="
M454.500000,473.500000 
	C443.176178,475.909149 435.113922,482.740997 430.647125,493.063660 
	C426.368164,502.952209 424.906189,513.507446 429.041107,523.983765 
	C432.963348,533.921265 444.426880,537.106079 453.495422,534.980469 
	C470.976166,530.882996 477.382751,516.691345 479.506653,502.501007 
	C480.503540,495.840424 479.849365,489.436188 476.484650,483.508728 
	C471.717896,475.111237 463.918610,473.066681 455.000000,473.500000 
"/>
<path fill="none" opacity="1.000000" stroke="#000000" stroke-linecap="round" stroke-linejoin="round" stroke-width="8.000000"
	d="
M311.500000,474.500000 
	C308.269409,474.648865 307.914703,477.313721 307.553833,479.508850 
	C304.789093,496.326080 302.247955,513.180420 299.405762,529.984070 
	C299.013336,532.304077 299.028076,533.769409 301.502838,533.963989 
	C312.210022,534.805908 323.241119,536.418701 332.931488,530.389893 
	C343.957123,523.530396 348.388733,512.624023 348.984161,499.999237 
	C349.330322,492.658966 349.097382,485.398041 342.983185,480.019104 
	C339.016663,476.529572 334.368835,474.527161 328.999969,474.505157 
	C323.333405,474.481964 317.666656,474.500000 312.000000,474.500000 
"/>
</svg>